<svg width="48" height="48" viewBox="0 0 48 48" fill="none" xmlns="http://www.w3.org/2000/svg">
<path d="M31.56 43.8H16.44C13.13 43.8 11.47 43.8 9.93 43.01C8.57 42.32 7.48 41.23 6.78 39.87C6 38.33 6 36.67 6 33.36V18.24C6 14.93 6 13.27 6.78 11.73C7.48 10.37 8.56 9.28001 9.93 8.58001C11.23 7.92001 12.61 7.81001 15 7.80001V6.00001C15 5.01001 15.81 4.20001 16.8 4.20001C17.79 4.20001 18.6 5.01001 18.6 6.00001V7.80001H29.4V6.00001C29.4 5.01001 30.21 4.20001 31.2 4.20001C32.19 4.20001 33 5.01001 33 6.00001V7.80001C35.39 7.82001 36.77 7.92001 38.07 8.58001C39.43 9.28001 40.52 10.36 41.22 11.73C42 13.27 42 14.93 42 18.24V33.36C42 36.67 42 38.33 41.22 39.87C40.53 41.23 39.44 42.32 38.07 43.02C36.53 43.8 34.87 43.8 31.56 43.8ZM9.6 22.2V33.36C9.6 36.01 9.6 37.46 9.99 38.23C10.34 38.91 10.88 39.46 11.56 39.8C12.33 40.19 13.79 40.19 16.44 40.19H31.56C34.21 40.19 35.66 40.19 36.43 39.8C37.11 39.45 37.66 38.91 38 38.23C38.39 37.46 38.39 36 38.39 33.35V22.19H9.6V22.2ZM9.6 18.6H38.4V18.24C38.4 15.59 38.4 14.14 38.01 13.37C37.66 12.69 37.12 12.14 36.44 11.8C35.82 11.49 34.76 11.42 33.01 11.41V13.21C33.01 14.2 32.2 15.01 31.21 15.01C30.22 15.01 29.41 14.2 29.41 13.21V11.41H18.61V13.21C18.61 14.2 17.8 15.01 16.81 15.01C15.82 15.01 15.01 14.2 15.01 13.21V11.41C13.25 11.42 12.19 11.49 11.58 11.8C10.9 12.15 10.35 12.69 10.01 13.37C9.62 14.14 9.62 15.6 9.62 18.24V18.6H9.6Z" fill="#155EEF"/>
<path d="M21.71 37.02C21.25 37.02 20.79 36.84 20.44 36.49L16.84 32.89C16.14 32.19 16.14 31.05 16.84 30.34C17.54 29.63 18.68 29.64 19.39 30.34L21.72 32.67L28.55 25.84C29.25 25.14 30.39 25.14 31.1 25.84C31.81 26.54 31.8 27.68 31.1 28.39L23 36.49C22.65 36.84 22.19 37.02 21.73 37.02H21.71Z" fill="#528BFF"/>
</svg>
